<svg width="316" height="66" viewBox="0 0 316 66" fill="none" xmlns="http://www.w3.org/2000/svg">
<g clip-path="url(#clip0_5295_38061)">
<path d="M200.823 46.174C200.823 56.407 195.947 66.0005 184.583 66.0005C182.872 66.0786 181.163 65.8073 179.559 65.2029C177.954 64.5985 176.487 63.6733 175.245 62.4829L174.308 66.0005H168.799V15.4473H175.823V46.6607C175.823 52.9729 177.338 59.8273 184.859 59.7856C192.145 59.7856 193.743 52.6114 193.743 46.6607C193.743 40.71 192.145 33.6053 184.859 33.5775C183.335 33.5935 181.825 33.8758 180.396 34.4117V28.6556C182.334 27.8698 184.396 27.4413 186.484 27.3904C196.401 27.3904 200.823 37.3175 200.823 46.174ZM137.16 66.0005H144.185V15.4473H137.16V66.0005ZM262.86 27.3904C260.773 27.4431 258.711 27.8715 256.772 28.6556V34.4117C258.201 33.8758 259.711 33.5935 261.235 33.5775C268.521 33.5775 270.119 40.71 270.119 46.6607C270.119 52.6114 268.59 59.7856 261.235 59.7856C253.728 59.7856 252.213 52.9729 252.213 46.6607V15.4473H245.175V66.0005H250.684L251.607 62.4829C252.849 63.6733 254.316 64.5985 255.921 65.2029C257.526 65.8073 259.235 66.0786 260.946 66.0005C272.309 66.0005 277.185 56.407 277.185 46.174C277.227 37.3175 272.805 27.3904 262.86 27.3904ZM312.804 56.0038V42.7677C312.804 32.34 306.152 27.4738 298.466 27.4738C293.409 27.6088 288.55 29.4825 284.692 32.785L288.025 37.54C290.903 35.2667 294.427 33.985 298.08 33.8833C302.598 33.8833 306.248 35.955 306.248 42.9623V51.1932C306.248 57.3525 300.05 59.9941 295.863 59.9941C292.157 59.9941 289.416 58.4926 289.416 55.1696C289.416 49.6082 297.061 47.8703 301.675 48.1066V42.7399C291.565 42.2115 282.502 46.466 282.502 55.6562C282.502 62.038 287.405 66.0005 294.761 66.0005C299.366 66.1213 303.854 64.5222 307.364 61.5096C307.998 62.8992 309.026 64.0676 310.318 64.8671C311.61 65.6665 313.108 66.0609 314.623 66.0005L316 60.8144C313.782 60.3 312.804 59.2433 312.804 56.0038ZM236.401 56.0038V42.7677C236.401 32.34 229.734 27.4738 222.062 27.4738C217.005 27.6054 212.144 29.4796 208.288 32.785L211.608 37.54C214.493 35.27 218.02 33.9889 221.677 33.8833C226.181 33.8833 229.844 35.955 229.844 42.9623V51.1932C229.844 57.3525 223.646 59.9941 219.459 59.9941C215.74 59.9941 213.013 58.4926 213.013 55.1696C213.013 49.6082 220.657 47.8703 225.271 48.1066V42.7399C215.161 42.2115 206.098 46.466 206.098 55.6562C206.098 62.038 211.002 66.0005 218.357 66.0005C222.963 66.1213 227.45 64.5222 230.96 61.5096C231.598 62.9105 232.637 64.0867 233.943 64.8869C235.249 65.6872 236.762 66.075 238.288 66.0005L239.665 60.8144C237.365 60.3 236.401 59.2433 236.401 56.0038ZM128.372 56.0038V42.7677C128.372 32.34 121.72 27.4738 114.048 27.4738C108.991 27.6099 104.132 29.4835 100.274 32.785L103.593 37.54C106.475 35.2648 110.004 33.9831 113.662 33.8833C118.166 33.8833 121.816 35.955 121.816 42.9623V51.1932C121.816 57.3525 115.632 59.9941 111.43 59.9941C107.725 59.9941 104.998 58.4926 104.998 55.1696C104.998 49.6082 112.643 47.8703 117.257 48.1066V42.7399C107.133 42.2115 98.0698 46.466 98.0698 55.6145C98.0698 61.9962 102.973 65.9587 110.329 65.9587C114.935 66.0822 119.423 64.4828 122.932 61.4679C123.567 62.8563 124.596 64.0237 125.887 64.8229C127.179 65.6221 128.676 66.0174 130.19 65.9587L131.568 60.7727C129.35 60.3 128.372 59.2433 128.372 56.0038ZM152.972 66.0005H159.997V28.5722H152.972V66.0005ZM152.972 22.5381H159.997V15.4473H152.972V22.5381Z" fill="black"/>
<path d="M65.1778 62.246C64.6989 62.8468 64.0171 63.2478 63.2633 63.3722L54.875 65.7636C54.1423 66.0409 53.3349 66.0409 52.6023 65.7636C52.0022 65.2646 51.6011 64.5634 51.4728 63.7893C39.283 17.8938 37.6025 7.99452 32.6853 7.99452C27.768 7.99452 26.1702 17.8938 13.8977 63.8172C13.7743 64.5897 13.3779 65.291 12.782 65.7914C12.0494 66.0687 11.242 66.0687 10.5094 65.7914L2.10729 63.4C1.35839 63.2724 0.681984 62.8717 0.2065 62.2739C-0.062323 61.538 -0.062323 60.7295 0.2065 59.9937C12.6718 13.2083 19.6552 0 32.6853 0C45.7153 0 52.7125 13.2083 65.1778 59.9659C65.4396 60.703 65.4396 61.509 65.1778 62.246Z" fill="#FDB913"/>
<path d="M72.6434 32.7012C72.6372 33.1538 72.5338 33.5998 72.3403 34.0081L71.996 34.9675C71.8371 35.5302 71.492 36.0209 71.018 36.3578C70.4701 36.598 69.8562 36.6374 69.2825 36.4691C58.3374 34.0345 46.8969 35.446 36.8549 40.47C26.813 45.494 18.772 53.8291 14.0631 64.0953C13.7188 64.86 13.1816 66.0001 11.9557 66.0001C11.4876 65.9895 11.0236 65.9098 10.5783 65.7638L2.17627 63.3724C1.11568 63.0804 0 62.705 0 61.3842C0.0385554 60.8249 0.193433 60.2801 0.454538 59.7853C6.4231 46.877 17.0155 36.731 30.0985 31.3908C43.1816 26.0505 57.7833 25.9127 70.963 31.005C71.6241 31.2135 72.6434 31.6167 72.6434 32.7012Z" fill="url(#paint0_linear_5295_38061)"/>
</g>
<defs>
<linearGradient id="paint0_linear_5295_38061" x1="0" y1="46.6047" x2="72.6434" y2="46.6047" gradientUnits="userSpaceOnUse">
<stop offset="0.3" stop-color="#FDB913"/>
<stop offset="0.75" stop-color="#F7941F"/>
</linearGradient>
<clipPath id="clip0_5295_38061">
<rect width="316" height="66" fill="white"/>
</clipPath>
</defs>
</svg>
